<?xml version="1.0" encoding="UTF-8" standalone="no"?>
<svg
   xmlns:dc="http://purl.org/dc/elements/1.1/"
   xmlns:cc="http://creativecommons.org/ns#"
   xmlns:rdf="http://www.w3.org/1999/02/22-rdf-syntax-ns#"
   xmlns:svg="http://www.w3.org/2000/svg"
   xmlns="http://www.w3.org/2000/svg"
   xmlns:sodipodi="http://sodipodi.sourceforge.net/DTD/sodipodi-0.dtd"
   xmlns:inkscape="http://www.inkscape.org/namespaces/inkscape"
   aria-labelledby="justworks-tlc-logo--aria"
   width="1000"
   height="185.17661"
   viewBox="0 0 1000 185.17661"
   version="1.1"
   id="svg57"
   sodipodi:docname="A.svg"
   style="fill:none"
   inkscape:version="0.92.4 (5da689c313, 2019-01-14)">
  <metadata
     id="metadata63">
    <rdf:RDF>
      <cc:Work
         rdf:about="">
        <dc:format>image/svg+xml</dc:format>
        <dc:type
           rdf:resource="http://purl.org/dc/dcmitype/StillImage" />
        <dc:title>Justworks Logo</dc:title>
      </cc:Work>
    </rdf:RDF>
  </metadata>
  <defs
     id="defs61" />
  <sodipodi:namedview
     pagecolor="#ffffff"
     bordercolor="#111111"
     borderopacity="1"
     objecttolerance="10"
     gridtolerance="10"
     guidetolerance="10"
     inkscape:pageopacity="0"
     inkscape:pageshadow="2"
     inkscape:window-width="1920"
     inkscape:window-height="1017"
     id="namedview59"
     showgrid="false"
     fit-margin-top="0"
     fit-margin-left="0"
     fit-margin-right="0"
     fit-margin-bottom="0"
     inkscape:zoom="0.64182692"
     inkscape:cx="446.27376"
     inkscape:cy="101.34529"
     inkscape:window-x="1912"
     inkscape:window-y="-8"
     inkscape:window-maximized="1"
     inkscape:current-layer="svg57" />
  <title
     id="justworks-tlc-logo--aria">Justworks Logo</title>
  <path
     class="svg__bg"
     d="M 994.37526,143.48718 H 5.4037313 v 41.68943 H 994.37526 Z"
     id="path37"
     inkscape:connector-curvature="0"
     style="fill:#1e98ff;stroke-width:7.71569204" />
  <path
     class="svg__body--f"
     d="m 0,101.46675 34.85155,-6.617748 c 0.661775,17.867228 6.286515,26.469458 18.087511,26.469458 10.25701,0 14.99946,-4.74207 14.99946,-18.52847 V 0 H 104.22357 V 94.187767 C 104.22357,131.02402 89.003596,146.244 52.167029,146.244 14.006836,146.244 2.867537,123.96571 0,101.46675 Z"
     id="path39"
     inkscape:connector-curvature="0"
     style="fill:#000000;stroke-width:7.71569204" />
  <path
     class="svg__body--f"
     d="m 126.72253,108.41473 v -69.1515 h 35.40268 v 69.81351 c 0,10.03657 4.74284,14.00629 12.46316,14.00629 10.25647,0 16.43288,-6.28597 16.43288,-20.84471 V 39.26323 h 35.40345 v 104.22395 h -33.74921 v -28.1237 h -0.8819 c -5.18417,24.37388 -16.65432,30.65985 -32.31486,30.65985 -21.94806,-0.10956 -32.7562,-11.69004 -32.7562,-37.6086 z"
     id="path41"
     inkscape:connector-curvature="0"
     style="fill:#000000;stroke-width:7.71569204" />
  <path
     class="svg__body--f"
     d="m 244.5126,121.31846 19.08013,-12.90373 c 6.28675,11.69082 16.21299,16.21299 29.22705,16.21299 9.8159,0 14.1174,-2.86793 14.1174,-8.38233 0,-6.28675 -4.19117,-9.59524 -15.88198,-11.69082 l -14.55797,-2.75682 c -19.63181,-3.529154 -30.21928,-14.999302 -30.21928,-31.101951 0,-21.506489 17.31478,-33.969259 43.78501,-33.969259 26.24878,0 38.60084,10.80837 45.21859,22.94029 L 316.75308,71.578088 C 312.01025,60.76972 302.41501,57.2404 293.59212,57.2404 c -9.1539,0 -14.00707,3.30872 -14.00707,8.712949 0,5.183556 3.9705,8.161427 14.00707,10.036341 l 14.77863,2.757434 c 21.83773,3.970495 32.53554,12.903723 32.53554,32.314866 0,18.30779 -11.69082,34.85178 -46.10127,34.85178 -25.36688,0 -42.5721,-9.70557 -50.29242,-24.59531 z"
     id="path43"
     inkscape:connector-curvature="0"
     style="fill:#000000;stroke-width:7.71569204" />
  <path
     class="svg__body--f"
     d="M 361.9709,115.36271 V 60.10779 H 347.85427 V 39.26307 h 14.11663 v -27.3519 h 35.40345 v 27.3519 h 17.09489 v 20.84472 h -17.09489 v 52.05677 c 0,6.83764 2.75682,9.59523 7.94099,9.59523 h 9.1539 v 21.72739 h -23.16097 c -22.27829,0 -29.33737,-7.05909 -29.33737,-28.12447 z"
     id="path45"
     inkscape:connector-curvature="0"
     style="fill:#000000;stroke-width:7.71569204" />
  <path
     class="svg__body--f"
     d="m 425.60915,39.26323 h 38.38017 l 14.33807,65.62234 h 0.88191 l 18.30856,-65.62234 h 29.22704 l 17.64579,65.62234 h 0.88268 l 15.88121,-65.62234 h 27.9038 L 556.74351,143.48718 H 526.30357 L 507.77433,77.974783 h -0.8819 l -17.64656,65.512397 h -30.43995 z"
     id="path47"
     inkscape:connector-curvature="0"
     style="fill:#000000;stroke-width:7.71569204" />
  <path
     class="svg__body--f"
     d="m 592.36609,91.319844 c 0,-33.307404 21.72662,-54.593304 54.15182,-54.593304 32.53553,0 54.15258,21.2859 54.15258,54.593304 0,33.307876 -21.72739,54.593926 -54.15258,54.593926 -32.53553,0 -54.15182,-21.17572 -54.15182,-54.593926 z m 71.24671,0 c 0,-26.91056 -5.84541,-33.969104 -17.09489,-33.969104 -11.24948,0 -17.09489,7.058544 -17.09489,33.969104 0,26.910796 5.84541,33.969106 17.09489,33.969106 11.24948,0 17.09489,-7.05831 17.09489,-33.969106 z"
     id="path49"
     inkscape:connector-curvature="0"
     style="fill:#000000;stroke-width:7.71569204" />
  <path
     class="svg__body--f"
     d="m 716.33258,39.2633 h 33.3071 v 34.630962 h 0.88267 C 755.48509,45.32923 765.08032,38.60153 780.51942,38.60153 h 1.87491 v 31.21198 h -17.09334 c -10.25647,0 -13.56573,3.30872 -13.56573,15.660926 v 57.902414 h -35.40268 z"
     id="path51"
     inkscape:connector-curvature="0"
     style="fill:#000000;stroke-width:7.71569204" />
  <path
     class="svg__body--f"
     d="m 841.40395,101.79775 -10.14614,11.24948 v 30.43995 H 796.18228 V 0.22063 h 35.07553 v 83.82023 l 36.17117,-44.77763 h 31.54175 l -34.41199,37.498492 36.61867,66.725458 h -37.49826 z"
     id="path53"
     inkscape:connector-curvature="0"
     style="fill:#000000;stroke-width:7.71569204" />
  <path
     class="svg__body--f"
     d="m 903.49212,121.31846 19.18893,-12.90373 c 6.28829,11.69082 16.21838,16.21299 29.22704,16.21299 9.82208,0 14.11972,-2.86793 14.11972,-8.38233 0,-6.28675 -4.18962,-9.59524 -15.8789,-11.69082 l -14.55951,-2.75682 c -19.63643,-3.529154 -30.22236,-14.999302 -30.22236,-31.101951 0,-21.506489 17.31401,-33.969259 43.78655,-33.969259 26.24878,0 38.60161,10.80837 45.22167,22.94029 L 975.84217,71.578088 C 971.10473,60.76972 961.50641,57.2404 952.67966,57.2404 c -9.15081,0 -14.00398,3.30872 -14.00398,8.712949 0,5.183556 3.97358,8.161427 14.00398,10.036341 l 14.78327,2.757434 C 989.29833,82.717619 1000,91.650847 1000,111.06199 c 0,18.30779 -11.69699,34.85178 -46.10126,34.85178 -25.3692,0 -42.68321,-9.70557 -50.40662,-24.59531 z"
     id="path55"
     inkscape:connector-curvature="0"
     style="fill:#000000;stroke-width:7.71569204" />
</svg>
