<svg width="98" height="29" viewBox="0 0 98 29" fill="none" xmlns="http://www.w3.org/2000/svg">
<path d="M1.4 9.7999C0.7 9.0999 0.3 8.0999 0.3 7.1999C0.3 6.9999 0.5 6.8999 0.6 6.8999H1.9C2.1 6.8999 2.2 7.0999 2.2 7.1999C2.2 7.5999 2.4 8.1999 2.7 8.4999C3 8.7999 3.6 8.9999 4.3 8.9999C5 8.9999 5.5 8.8999 5.8 8.4999C6.1 8.2999 6.2 7.9999 6.2 7.5999C6.2 6.8999 5.8 6.4999 4.9 6.3999C4.4 6.2999 4 6.1999 3.4 6.0999C1.7 5.8999 0.6 4.7999 0.6 3.1999C0.6 2.3999 0.9 1.5999 1.5 1.0999C2.3 0.399902 3.2 -9.76548e-05 4.3 -9.76548e-05C5.4 -9.76548e-05 6.3 0.299902 7 0.999902C7.6 1.5999 8 2.3999 8 3.2999V3.3999C8 3.5999 7.8 3.6999 7.7 3.6999H6.5C6.3 3.6999 6.2 3.5999 6.2 3.3999C6.2 2.9999 6.1 2.6999 5.8 2.3999C5.4 1.9999 4.9 1.7999 4.3 1.7999C3.7 1.7999 3.3 1.9999 2.9 2.3999C2.7 2.6999 2.6 2.8999 2.6 3.1999C2.6 3.8999 3.3 4.1999 3.7 4.1999C4.1 4.1999 4.4 4.2999 4.8 4.3999C5 4.3999 5.1 4.4999 5.3 4.4999C7.1 4.7999 8.3 5.8999 8.3 7.5999C8.3 8.3999 8 9.0999 7.4 9.6999C6.7 10.3999 5.7 10.7999 4.4 10.7999C3.1 10.6999 2.1 10.3999 1.4 9.7999ZM8.5 27.8999C8.5 27.9999 8.5 28.0999 8.5 28.1999C8.4 28.2999 8.3 28.2999 8.2 28.2999H6.9C6.8 28.2999 6.6 28.1999 6.6 28.0999L5.9 25.7999H2.6L1.9 28.0999C1.9 28.1999 1.7 28.2999 1.6 28.2999H0.3C0.2 28.2999 0.1 28.1999 0 28.1999C0 28.0999 0 27.9999 0 27.8999L3.2 18.1999C3.2 18.0999 3.4 17.9999 3.5 17.9999H5C5.1 17.9999 5.3 18.0999 5.3 18.1999L8.5 27.8999ZM4.2 20.7999L3.2 24.0999H5.3L4.2 20.7999ZM19.2 10.6999C21.5 10.6999 22.9 9.1999 22.9 6.5999V0.499902C22.9 0.299902 22.7 0.199902 22.6 0.199902H21.4C21.2 0.199902 21.1 0.399902 21.1 0.499902V6.6999C21.1 8.1999 20.5 8.8999 19.3 8.8999C18.1 8.8999 17.5 8.1999 17.5 6.6999V0.599902C17.5 0.399902 17.3 0.299902 17.2 0.299902H16C15.8 0.299902 15.7 0.499902 15.7 0.599902V6.6999C15.4 9.1999 16.8 10.6999 19.2 10.6999ZM22.7 24.5999H21.4C21.2 24.5999 21.1 24.7999 21.1 24.8999C21.1 25.8999 20.3 26.6999 19.2 26.6999C18.7 26.6999 18.2 26.4999 17.8 26.0999C17.1 25.3999 17.1 24.1999 17.1 23.1999C17.1 22.1999 17.1 20.9999 17.8 20.2999C18.2 19.8999 18.6 19.6999 19.2 19.6999C19.8 19.6999 20.2 19.8999 20.6 20.2999C20.9 20.5999 21 20.9999 21.1 21.3999C21.1 21.5999 21.3 21.6999 21.4 21.6999H22.7C22.9 21.6999 23 21.4999 23 21.3999V21.2999C22.9 19.2999 21.3 17.8999 19.2 17.8999C18.2 17.8999 17.2 18.2999 16.5 18.9999C15.3 20.1999 15.2 21.6999 15.2 23.1999C15.2 24.6999 15.3 26.2999 16.5 27.3999C17.2 28.0999 18.2 28.4999 19.2 28.4999C21.3 28.4999 22.9 26.9999 23 24.8999C23 24.7999 23 24.6999 22.9 24.5999C22.9 24.6999 22.8 24.5999 22.7 24.5999ZM34.2 10.7999C36.3 10.7999 37.9 9.2999 38 7.1999C38 7.0999 38 6.9999 37.9 6.8999C37.8 6.7999 37.7 6.7999 37.7 6.7999H36.4C36.2 6.7999 36.1 6.8999 36.1 7.0999C36.1 8.0999 35.3 8.8999 34.2 8.8999C33.7 8.8999 33.3 8.6999 32.8 8.2999C32.1 7.5999 32.1 6.3999 32.1 5.3999C32.1 4.3999 32.1 3.1999 32.8 2.4999C33.2 2.0999 33.6 1.8999 34.2 1.8999C34.7 1.8999 35.2 2.0999 35.6 2.4999C35.8 2.6999 36 3.1999 36 3.5999C36 3.7999 36.2 3.8999 36.3 3.8999H37.6C37.8 3.8999 37.9 3.6999 37.9 3.5999V3.4999C37.8 1.4999 36.2 0.0999023 34.1 0.0999023C33.1 0.0999023 32.1 0.499902 31.4 1.1999C30.2 2.3999 30.1 3.9999 30.1 5.3999C30.1 6.7999 30.2 8.4999 31.4 9.5999C32.2 10.3999 33.1 10.7999 34.2 10.7999ZM38.3 27.8999C38.3 27.9999 38.3 28.0999 38.3 28.1999C38.2 28.2999 38.1 28.2999 38 28.2999H36.7C36.6 28.2999 36.4 28.1999 36.4 28.0999L35.7 25.7999H32.5L31.8 28.0999C31.8 28.1999 31.6 28.2999 31.5 28.2999H30.3C30.2 28.2999 30.1 28.1999 30 28.1999C29.9 28.0999 29.9 27.9999 30 27.8999L33.1 18.1999C33.1 18.0999 33.3 17.9999 33.4 17.9999H34.9C35 17.9999 35.2 18.0999 35.2 18.1999L38.3 27.8999ZM34.1 20.7999L33.1 24.0999H35.2L34.1 20.7999ZM49.1 10.7999C51.2 10.7999 52.8 9.2999 52.9 7.1999C52.9 7.0999 52.9 6.9999 52.8 6.8999C52.7 6.7999 52.6 6.7999 52.6 6.7999H51.3C51.1 6.7999 51 6.9999 51 7.0999C51 8.0999 50.2 8.8999 49.1 8.8999C48.6 8.8999 48.2 8.6999 47.7 8.2999C47 7.5999 47 6.3999 47 5.3999C47 4.3999 47 3.1999 47.7 2.4999C48.1 2.0999 48.5 1.8999 49.1 1.8999C49.6 1.8999 50.1 2.0999 50.5 2.4999C50.8 2.7999 50.9 3.1999 50.9 3.5999C50.9 3.7999 51.1 3.8999 51.2 3.8999H52.5C52.7 3.8999 52.8 3.6999 52.8 3.5999V3.4999C52.7 1.4999 51.1 -9.76548e-05 49 -9.76548e-05C48 -9.76548e-05 47 0.399902 46.3 1.0999C45.1 2.2999 45 3.9999 45 5.3999C45 6.7999 45.1 8.4999 46.3 9.5999C47.1 10.3999 48.1 10.7999 49.1 10.7999ZM52.6 23.1999C52.6 24.2999 52.5 25.7999 51.9 26.7999C51.3 27.8999 50.1 28.3999 48.5 28.3999H45.6C45.4 28.3999 45.3 28.1999 45.3 28.0999V18.3999C45.3 18.1999 45.5 18.0999 45.6 18.0999H48.5C50 18.0999 51.2 18.6999 51.9 19.7999C52.6 20.6999 52.6 21.9999 52.6 23.1999ZM50.1 25.9999C50.6 25.3999 50.7 24.3999 50.7 23.1999C50.7 21.9999 50.7 20.9999 50.1 20.3999C49.8 20.0999 49.3 19.8999 48.6 19.8999H47.3V26.5999H48.6C49.2 26.5999 49.8 26.3999 50.1 25.9999ZM60.7 10.5999H67.1C67.3 10.5999 67.4 10.3999 67.4 10.2999V9.0999C67.4 8.8999 67.2 8.7999 67.1 8.7999H62.3V6.0999H65.8C66 6.0999 66.1 5.8999 66.1 5.7999V4.5999C66.1 4.3999 65.9 4.2999 65.8 4.2999H62.3V2.0999H67.1C67.3 2.0999 67.4 1.8999 67.4 1.7999V0.599902C67.4 0.399902 67.2 0.299902 67.1 0.299902H60.7C60.5 0.299902 60.4 0.499902 60.4 0.599902V10.2999C60.4 10.3999 60.5 10.5999 60.7 10.5999ZM60.7 28.3999H67.1C67.3 28.3999 67.4 28.1999 67.4 28.0999V26.9999C67.4 26.7999 67.2 26.6999 67.1 26.6999H62.3V24.0999H65.8C66 24.0999 66.1 23.8999 66.1 23.7999V22.5999C66.1 22.3999 65.9 22.2999 65.8 22.2999H62.3V19.9999H67.1C67.3 19.9999 67.4 19.7999 67.4 19.6999V18.5999C67.4 18.3999 67.2 18.2999 67.1 18.2999H60.7C60.5 18.2999 60.4 18.4999 60.4 18.5999V28.2999C60.4 28.1999 60.5 28.3999 60.7 28.3999ZM78.9 10.6999C80.1 10.6999 81.2 10.2999 81.9 9.5999C82.5 8.9999 82.8 8.2999 82.8 7.4999C82.8 5.8999 81.7 4.6999 79.8 4.3999C79.6 4.3999 79.5 4.2999 79.3 4.2999C79 4.1999 78.6 4.1999 78.2 4.0999C77.8 3.9999 77.1 3.7999 77.1 3.0999C77.1 2.7999 77.2 2.4999 77.4 2.2999C77.7 1.8999 78.2 1.7999 78.8 1.7999C79.4 1.7999 79.9 1.9999 80.2 2.2999C80.4 2.5999 80.5 2.8999 80.6 3.2999C80.6 3.4999 80.8 3.5999 80.9 3.5999H82.2C82.4 3.5999 82.5 3.3999 82.5 3.2999V3.1999C82.5 2.2999 82.1 1.5999 81.5 0.899902C80.8 0.299902 79.9 -0.100098 78.8 -0.100098C77.7 -0.100098 76.8 0.199902 76.1 0.999902C75.6 1.5999 75.2 2.3999 75.2 3.1999C75.2 4.7999 76.2 5.7999 78 6.0999C78.5 6.1999 78.9 6.1999 79.5 6.2999C80.3 6.3999 80.8 6.7999 80.8 7.4999C80.8 7.8999 80.7 8.0999 80.4 8.3999C80.1 8.6999 79.6 8.8999 78.9 8.8999C78.2 8.8999 77.7 8.6999 77.3 8.3999C77 8.0999 76.8 7.5999 76.8 7.0999C76.8 6.8999 76.6 6.7999 76.5 6.7999H75.2C75 6.7999 74.9 6.9999 74.9 7.0999C74.9 8.0999 75.3 8.9999 76 9.6999C76.7 10.3999 77.7 10.6999 78.9 10.6999ZM77 27.9999V22.3999L78 25.1999C78 25.2999 78.2 25.3999 78.3 25.3999H79.4C79.5 25.3999 79.7 25.2999 79.7 25.1999L80.7 22.3999V27.9999C80.7 28.1999 80.9 28.2999 81 28.2999H82.2C82.4 28.2999 82.5 28.0999 82.5 27.9999V18.2999C82.5 18.0999 82.3 17.9999 82.2 17.9999H80.7C80.6 17.9999 80.4 18.0999 80.4 18.1999L78.9 22.6999L77.3 18.1999C77.3 18.0999 77.1 17.9999 77 17.9999H75.5C75.3 17.9999 75.2 18.1999 75.2 18.2999V27.9999C75.2 28.1999 75.4 28.2999 75.5 28.2999H76.7C76.8 28.3999 77 28.1999 77 27.9999ZM93.9 10.6999C95.1 10.6999 96.2 10.2999 96.9 9.5999C97.5 8.9999 97.8 8.2999 97.8 7.4999C97.8 5.8999 96.7 4.6999 94.8 4.3999C94.6 4.3999 94.5 4.2999 94.3 4.2999C94 4.1999 93.6 4.1999 93.2 4.0999C92.8 3.9999 92.1 3.7999 92.1 3.0999C92.1 2.7999 92.2 2.4999 92.4 2.2999C92.7 1.8999 93.2 1.7999 93.8 1.7999C94.4 1.7999 94.9 1.9999 95.2 2.2999C95.4 2.5999 95.5 2.8999 95.6 3.2999C95.6 3.4999 95.8 3.5999 95.9 3.5999H97.2C97.4 3.5999 97.5 3.3999 97.5 3.2999V3.1999C97.5 2.2999 97.1 1.5999 96.5 0.899902C95.8 0.299902 94.9 -0.100098 93.8 -0.100098C92.7 -0.100098 91.8 0.199902 91.1 0.999902C90.5 1.4999 90.2 2.2999 90.2 3.0999C90.2 4.6999 91.2 5.6999 93 5.9999C93.5 6.0999 93.9 6.0999 94.5 6.1999C95.3 6.2999 95.8 6.6999 95.8 7.3999C95.8 7.7999 95.7 7.9999 95.4 8.2999C95.1 8.5999 94.6 8.7999 93.9 8.7999C93.2 8.7999 92.7 8.5999 92.3 8.2999C92 7.9999 91.8 7.4999 91.8 6.9999C91.8 6.7999 91.6 6.6999 91.5 6.6999H90.2C90 6.6999 89.9 6.8999 89.9 6.9999C89.9 7.9999 90.3 8.8999 91 9.5999C91.6 10.3999 92.6 10.6999 93.9 10.6999ZM98 18.1999C97.9 18.0999 97.8 17.9999 97.7 17.9999H96.4C96.3 17.9999 96.2 18.0999 96.1 18.1999L93.8 22.2999L91.5 18.1999C91.4 18.0999 91.3 17.9999 91.2 17.9999H89.8C89.7 17.9999 89.6 18.0999 89.5 18.1999C89.4 18.2999 89.4 18.3999 89.5 18.4999L92.8 24.1999V27.9999C92.8 28.1999 93 28.2999 93.1 28.2999H94.3C94.5 28.2999 94.6 28.0999 94.6 27.9999V24.1999L97.9 18.4999C98 18.4999 98 18.2999 98 18.1999ZM12 28.0999V0.499902C12 0.299902 11.9 0.199902 11.7 0.199902C11.5 0.199902 11.4 0.299902 11.4 0.499902V28.0999C11.4 28.2999 11.5 28.3999 11.7 28.3999C11.9 28.3999 12 28.2999 12 28.0999ZM26.9 28.0999V0.499902C26.9 0.299902 26.8 0.199902 26.6 0.199902C26.4 0.199902 26.3 0.299902 26.3 0.499902V28.0999C26.3 28.2999 26.4 28.3999 26.6 28.3999C26.8 28.3999 26.9 28.2999 26.9 28.0999ZM86.6 28.0999V0.499902C86.6 0.299902 86.5 0.199902 86.3 0.199902C86.1 0.199902 86 0.299902 86 0.499902V28.0999C86 28.2999 86.1 28.3999 86.3 28.3999C86.4 28.3999 86.6 28.2999 86.6 28.0999ZM71.7 28.0999V0.499902C71.7 0.299902 71.6 0.199902 71.4 0.199902C71.2 0.199902 71.1 0.299902 71.1 0.499902V28.0999C71.1 28.2999 71.2 28.3999 71.4 28.3999C71.5 28.3999 71.7 28.2999 71.7 28.0999ZM56.7 28.0999V0.499902C56.7 0.299902 56.6 0.199902 56.4 0.199902C56.2 0.199902 56.1 0.299902 56.1 0.499902V28.0999C56.1 28.2999 56.2 28.3999 56.4 28.3999C56.6 28.3999 56.7 28.2999 56.7 28.0999ZM41.8 28.0999V0.499902C41.8 0.299902 41.7 0.199902 41.5 0.199902C41.3 0.199902 41.2 0.299902 41.2 0.499902V28.0999C41.2 28.2999 41.3 28.3999 41.5 28.3999C41.7 28.3999 41.8 28.2999 41.8 28.0999Z" fill="#1a202c"/>
</svg>
